<svg xmlns="http://www.w3.org/2000/svg" xmlns:xlink="http://www.w3.org/1999/xlink" width="281" height="281" viewBox="0 0 281 281">
  <defs>
    <linearGradient id="linear-gradient" x1="0.5" y1="-0.61" x2="0.5" y2="1" gradientUnits="objectBoundingBox">
      <stop offset="0" stop-color="#0084cd" stop-opacity="0"/>
      <stop offset="1" stop-color="#0084cd"/>
    </linearGradient>
  </defs>
  <g id="Develop_Trust" data-name="Develop Trust" transform="translate(41 100.03)">
    <g id="Ellipse" transform="translate(-39 -98.03)" fill="#fff" stroke="#fff" stroke-width="2">
      <circle cx="138.5" cy="138.5" r="138.5" stroke="none"/>
      <circle cx="138.5" cy="138.5" r="139.5" fill="none"/>
    </g>
    <path id="Intersection_3" data-name="Intersection 3" d="M-662.168-2689.041c16.794,4.037,35.885,7.2,54.025,6.994,47.637,0,106.626-25.032,160.875-31.067,19.878-2.211,40.41-1.432,58,.326A138.509,138.509,0,0,1-527.5-2583.031,138.561,138.561,0,0,1-662.168-2689.041Z" transform="translate(627 2762)" fill="url(#linear-gradient)"/>
    <text id="Develop_Trust-2" data-name="Develop 
Trust" transform="translate(60 86.97)" fill="#fff" font-size="20" font-family="HindMadurai-Bold, Hind Madurai" font-weight="700"><tspan x="2.61" y="20">Develop </tspan><tspan x="16.84" y="50">Trust</tspan></text>
    <g id="Icon_Develop_Trust" data-name="Icon Develop Trust" transform="translate(59 -23.03)">
      <rect id="Rectangle_252" data-name="Rectangle 252" width="100" height="100" transform="translate(-9 -10)" fill="none"/>
      <path id="Path_894" data-name="Path 894" d="M243.07,143.135a4.249,4.249,0,0,0-1.576.3,4.271,4.271,0,0,0-5.548-2.907v-.245a4.274,4.274,0,0,0-8.4-1.122,4.271,4.271,0,0,0-5.849,3.971v11.941l-1.5.748a7.6,7.6,0,0,0-.817,13.123l3.894,2.6a2.844,2.844,0,0,1,1.268,2.371v17.872H227.4V173.914a5.687,5.687,0,0,0-2.538-4.741l-3.894-2.6a4.752,4.752,0,0,1,.511-8.2l.222-.111v3.393h2.849v-18.52a1.425,1.425,0,1,1,2.849,0v12.822h2.849V140.286a1.425,1.425,0,1,1,2.849,0v15.671h2.849v-11.4a1.425,1.425,0,0,1,2.849,0v12.822h2.849v-9.972a1.425,1.425,0,1,1,2.849,0v12.149a25.691,25.691,0,0,1-2.7,11.433,1.424,1.424,0,0,0-.15.637v20.159h2.849V171.959a28.562,28.562,0,0,0,2.849-12.4V147.409a4.279,4.279,0,0,0-4.274-4.274Z" transform="translate(-181.886 -116.309)" fill="#0084cd"/>
      <path id="Path_895" data-name="Path 895" d="M128.548,126.81a5.661,5.661,0,0,0-1.669-4.029l-2.638-2.638a4.722,4.722,0,0,1-1.392-3.36v-7.414a1.425,1.425,0,0,1,2.849,0v4.274a1.425,1.425,0,0,0,.974,1.352l.219.073a4.5,4.5,0,0,1,3.081,4.274h2.849a7.345,7.345,0,0,0-4.274-6.678V97.972a1.425,1.425,0,1,1,2.849,0v11.4h2.849v-17.1a1.425,1.425,0,1,1,2.849,0v17.1h2.849V96.548a1.425,1.425,0,0,1,2.849,0v1.425h2.849V96.548a4.272,4.272,0,0,0-5.7-4.029v-.245a4.274,4.274,0,1,0-8.548,0v1.67a4.272,4.272,0,0,0-5.7,4.029v7.368a4.272,4.272,0,0,0-5.7,4.029v7.414a7.553,7.553,0,0,0,2.226,5.375l2.638,2.638a2.829,2.829,0,0,1,.835,2.014v2.5h-1.425a1.425,1.425,0,0,0-1.425,1.425v21.584H125.7V132.163h11.4v-2.849h-8.548Z" transform="translate(-102.98 -76.845)" fill="#0084cd"/>
      <path id="Path_896" data-name="Path 896" d="M168,352h2.849v2.849H168Z" transform="translate(-142.432 -293.833)" fill="#0084cd"/>
      <path id="Path_897" data-name="Path 897" d="M248,16h2.849V28.822H248Z" transform="translate(-208.186 -17.667)" fill="#0084cd"/>
      <path id="Path_898" data-name="Path 898" d="M0,0H2.849V9.838H0Z" transform="matrix(0.866, -0.5, 0.5, 0.866, 18.635, 4.771)" fill="#0084cd"/>
      <path id="Path_899" data-name="Path 899" d="M0,0H2.849V12.822H0Z" transform="matrix(0.5, -0.866, 0.866, 0.5, 3.513, 20.937)" fill="#0084cd"/>
      <path id="Path_900" data-name="Path 900" d="M16,248H28.822v2.849H16Z" transform="translate(-17.5 -208.353)" fill="#0084cd"/>
      <path id="Path_901" data-name="Path 901" d="M0,0H12.822V2.849H0V0Z" transform="matrix(0.866, -0.5, 0.5, 0.866, 3.512, 61.207)" fill="#0084cd"/>
      <path id="Path_902" data-name="Path 902" d="M0,0H2.849V12.822H0Z" transform="matrix(0.5, -0.866, 0.866, 0.5, 66.434, 57.266)" fill="#0084cd"/>
      <path id="Path_903" data-name="Path 903" d="M424,248h12.822v2.849H424Z" transform="translate(-352.844 -208.353)" fill="#0084cd"/>
      <path id="Path_904" data-name="Path 904" d="M0,0H12.822V2.849H0Z" transform="matrix(0.866, -0.5, 0.5, 0.866, 66.433, 24.879)" fill="#0084cd"/>
      <path id="Path_905" data-name="Path 905" d="M0,0H12.822V2.849H0Z" transform="matrix(0.5, -0.866, 0.866, 0.5, 54.961, 14.451)" fill="#0084cd"/>
      <path id="Path_906" data-name="Path 906" d="M0,0H2.849V5.7H0Z" transform="translate(29.542 2.905) rotate(-15.009)" fill="#0084cd"/>
      <path id="Path_907" data-name="Path 907" d="M0,0H2.849V5.7H0Z" transform="translate(12.021 13.873) rotate(-45)" fill="#0084cd"/>
      <path id="Path_908" data-name="Path 908" d="M0,0H2.849V5.7H0Z" transform="translate(2.344 32.129) rotate(-74.991)" fill="#0084cd"/>
      <path id="Path_909" data-name="Path 909" d="M0,0H5.7V2.849H0Z" transform="translate(2.35 50.023) rotate(-15.009)" fill="#0084cd"/>
      <path id="Path_910" data-name="Path 910" d="M0,0H5.7V2.849H0Z" transform="translate(48.724 7.676) rotate(-74.991)" fill="#0084cd"/>
      <path id="Path_911" data-name="Path 911" d="M0,0H5.7V2.849H0Z" transform="translate(64.398 15.893) rotate(-45)" fill="#0084cd"/>
      <path id="Path_912" data-name="Path 912" d="M0,0H5.7V2.849H0Z" transform="translate(73.908 30.835) rotate(-15.009)" fill="#0084cd"/>
      <path id="Path_913" data-name="Path 913" d="M0,0H2.849V5.7H0Z" transform="translate(73.914 51.3) rotate(-74.991)" fill="#0084cd"/>
    </g>
  </g>
</svg>
