<svg xmlns="http://www.w3.org/2000/svg" xmlns:xlink="http://www.w3.org/1999/xlink" width="281" height="281" viewBox="0 0 281 281">
  <defs>
    <linearGradient id="linear-gradient" x1="0.5" y1="-0.61" x2="0.5" y2="1" gradientUnits="objectBoundingBox">
      <stop offset="0" stop-color="#0084cd" stop-opacity="0"/>
      <stop offset="1" stop-color="#0084cd"/>
    </linearGradient>
  </defs>
  <g id="System_Optimization" data-name="System Optimization" transform="translate(-256 100.03)">
    <g id="Ellipse" transform="translate(258 -98.03)" fill="#fff" stroke="#fff" stroke-width="2">
      <circle cx="138.5" cy="138.5" r="138.5" stroke="none"/>
      <circle cx="138.5" cy="138.5" r="139.5" fill="none"/>
    </g>
    <path id="Intersection_4" data-name="Intersection 4" d="M-662.168-2689.041c16.794,4.037,35.885,7.2,54.025,6.994,47.637,0,106.626-25.032,160.875-31.067,19.878-2.211,40.41-1.432,58,.326A138.509,138.509,0,0,1-527.5-2583.031,138.561,138.561,0,0,1-662.168-2689.041Z" transform="translate(924 2762)" fill="url(#linear-gradient)"/>
    <text id="System_Optimization-2" data-name="System 
Optimization" transform="translate(337 86.97)" fill="#fff" font-size="20" font-family="HindMadurai-Bold, Hind Madurai" font-weight="700"><tspan x="27.4" y="20">System </tspan><tspan x="0.52" y="50">Optimization</tspan></text>
    <g id="Icon_System_Optimization" data-name="Icon System Optimization" transform="translate(352.257 -18.03)">
      <rect id="Rectangle_250" data-name="Rectangle 250" width="100" height="100" transform="translate(-5.257 -15)" fill="none"/>
      <path id="Path_924" data-name="Path 924" d="M46,57.461A2.261,2.261,0,1,0,48.258,55.2,2.261,2.261,0,0,0,46,57.461Z" transform="translate(-35.221 -52.881)" fill="#0084cd"/>
      <ellipse id="Ellipse_5" data-name="Ellipse 5" cx="2.261" cy="2.261" rx="2.261" ry="2.261" transform="translate(17.731 2.32)" fill="#0084cd"/>
      <ellipse id="Ellipse_6" data-name="Ellipse 6" cx="2.261" cy="2.261" rx="2.261" ry="2.261" transform="translate(24.686 2.32)" fill="#0084cd"/>
      <path id="Path_925" data-name="Path 925" d="M124.5,174.615a1.215,1.215,0,0,0,1.129-.766l6.758-16.99a1.215,1.215,0,1,0-2.258-.9l-6.758,16.99a1.216,1.216,0,0,0,1.129,1.664Z" transform="translate(-100.021 -136.716)" fill="#0084cd"/>
      <path id="Path_926" data-name="Path 926" d="M209.227,177.864a1.214,1.214,0,0,0,1.66-.442l4.538-7.834a1.215,1.215,0,0,0-.011-1.236l-4.538-7.527a1.215,1.215,0,1,0-2.081,1.254l4.167,6.912-4.178,7.213A1.215,1.215,0,0,0,209.227,177.864Z" transform="translate(-171.565 -140.943)" fill="#0084cd"/>
      <path id="Path_927" data-name="Path 927" d="M59.273,176.2,55.1,168.991l4.167-6.912a1.215,1.215,0,1,0-2.081-1.254l-4.538,7.527a1.215,1.215,0,0,0-.011,1.236l4.538,7.834a1.215,1.215,0,0,0,2.1-1.218Z" transform="translate(-40.647 -140.944)" fill="#0084cd"/>
      <path id="Path_928" data-name="Path 928" d="M307.911,331.233a1.215,1.215,0,0,0-1.434.947,4.78,4.78,0,1,1-1.514-4.542,1.215,1.215,0,0,0,1.611-1.819,7.207,7.207,0,1,0,2.283,6.848A1.215,1.215,0,0,0,307.911,331.233Z" transform="translate(-243.641 -278.249)" fill="#0084cd"/>
      <path id="Path_929" data-name="Path 929" d="M424.138,171.016a4.321,4.321,0,0,0-5.618,5.674,4.239,4.239,0,0,0,2.35,2.327,4.4,4.4,0,0,0,5.635-2.366A4.488,4.488,0,0,0,424.138,171.016Zm-1.634,5.9a1.895,1.895,0,1,1,1.895-1.895A1.895,1.895,0,0,1,422.5,176.915Z" transform="translate(-347.26 -149.712)" fill="#0084cd"/>
      <path id="Path_930" data-name="Path 930" d="M81.607,48.143l-.73-.3q.012-.355,0-.709l.727-.305a1.82,1.82,0,0,0,.972-2.38l-1-2.376a1.85,1.85,0,0,0-2.38-.972l-.727.305q-.242-.259-.5-.5l.3-.729a1.9,1.9,0,0,0-1-2.371l-2.386-.975a1.9,1.9,0,0,0-2.371,1l-.3.73q-.354-.012-.709,0l-.305-.727A1.815,1.815,0,0,0,69.2,36.748V24.9a6.262,6.262,0,0,0-6.254-6.254H60.4a1.215,1.215,0,1,0,0,2.43H62.95A3.829,3.829,0,0,1,66.774,24.9v7.653H2.43V24.9a3.829,3.829,0,0,1,3.824-3.824h48.5a1.215,1.215,0,1,0,0-2.43H6.254A6.262,6.262,0,0,0,0,24.9V75.94a6.262,6.262,0,0,0,6.254,6.254h4.567a1.215,1.215,0,0,0,0-2.43H6.254A3.829,3.829,0,0,1,2.43,75.94V34.978H66.775v2.74l-.335.141a1.82,1.82,0,0,0-.972,2.38l.305.727q-.259.242-.5.5l-.73-.3a1.82,1.82,0,0,0-2.371,1L61.2,44.554a1.9,1.9,0,0,0,1,2.371l.73.3q-.012.355,0,.709l-.727.305a1.851,1.851,0,0,0-.972,2.38l1,2.376a1.85,1.85,0,0,0,2.38.973l.727-.305q.242.26.5.5l-.3.73a1.82,1.82,0,0,0,1,2.37l.24.1v1.422a2.378,2.378,0,0,0-2.83.4L62.3,60.829a16.087,16.087,0,0,0-2.62-1.086V57.415A2.381,2.381,0,0,0,57.3,55.036H52.326a2.381,2.381,0,0,0-2.379,2.379v2.328a16.1,16.1,0,0,0-2.62,1.086L45.68,59.182a2.381,2.381,0,0,0-3.364,0L38.8,62.7a2.381,2.381,0,0,0,0,3.364l1.647,1.647a16.09,16.09,0,0,0-1.086,2.62H37.033a2.381,2.381,0,0,0-2.379,2.379v4.973a2.38,2.38,0,0,0,1.233,2.083H16.43a1.215,1.215,0,0,0,0,2.43H40.206c.078.163.156.325.24.486L38.8,84.326a2.379,2.379,0,0,0,0,3.364l3.516,3.516a2.381,2.381,0,0,0,3.364,0l1.647-1.647a16.1,16.1,0,0,0,2.62,1.086v2.328a2.381,2.381,0,0,0,2.379,2.379H57.3a2.381,2.381,0,0,0,2.379-2.379V90.646A16.086,16.086,0,0,0,62.3,89.56l1.647,1.647a2.378,2.378,0,0,0,3.364,0l3.516-3.516a2.379,2.379,0,0,0,0-3.364L69.177,82.68a16.088,16.088,0,0,0,1.086-2.62h2.328a2.381,2.381,0,0,0,2.379-2.379V72.709a2.381,2.381,0,0,0-2.379-2.379H70.263a16.1,16.1,0,0,0-1.086-2.62l1.647-1.647a2.381,2.381,0,0,0,0-3.364l-1.62-1.62V58.325a1.886,1.886,0,0,0,2.087-1.084l.3-.73q.354.012.709,0l.305.728a1.82,1.82,0,0,0,2.38.972l2.376-1a1.85,1.85,0,0,0,.973-2.38l-.305-.727q.26-.242.5-.5l.73.3a1.9,1.9,0,0,0,2.371-1l.975-2.386a1.821,1.821,0,0,0-1-2.371ZM69.344,72.76h3.2v4.87h-3.2a1.215,1.215,0,0,0-1.179.92,13.668,13.668,0,0,1-1.54,3.715,1.215,1.215,0,0,0,.183,1.484l2.261,2.261-3.444,3.444-2.261-2.261a1.215,1.215,0,0,0-1.484-.183,13.676,13.676,0,0,1-3.715,1.54,1.215,1.215,0,0,0-.92,1.179v3.2h-4.87v-3.2a1.215,1.215,0,0,0-.92-1.179,13.669,13.669,0,0,1-3.714-1.54,1.215,1.215,0,0,0-1.484.183L44,89.453l-3.444-3.444,2.261-2.261A1.215,1.215,0,0,0,43,82.265a13.67,13.67,0,0,1-1.54-3.715,1.215,1.215,0,0,0-1.179-.92h-3.2V72.76h3.2a1.215,1.215,0,0,0,1.179-.92A13.67,13.67,0,0,1,43,68.126a1.215,1.215,0,0,0-.183-1.484l-2.261-2.261L44,60.937,46.258,63.2a1.215,1.215,0,0,0,1.484.183,13.672,13.672,0,0,1,3.714-1.54,1.215,1.215,0,0,0,.92-1.179v-3.2h4.87v3.2a1.215,1.215,0,0,0,.92,1.179,13.676,13.676,0,0,1,3.715,1.54,1.215,1.215,0,0,0,1.484-.183l2.261-2.261,3.444,3.444-2.261,2.261a1.215,1.215,0,0,0-.183,1.484,13.668,13.668,0,0,1,1.54,3.714A1.215,1.215,0,0,0,69.344,72.76ZM79.609,51.415l-.992-.405a1.215,1.215,0,0,0-1.439.406,6.508,6.508,0,0,1-1.346,1.359,1.215,1.215,0,0,0-.392,1.443l.415.988-1.248.524-.415-.988a1.215,1.215,0,0,0-1.3-.73,6.493,6.493,0,0,1-1.912.01,1.214,1.214,0,0,0-1.3.743l-.405.992-1.254-.512.405-.992a1.215,1.215,0,0,0-.406-1.439,6.5,6.5,0,0,1-1.359-1.346,1.215,1.215,0,0,0-1.443-.392l-.988.415L63.7,50.242l.988-.415a1.215,1.215,0,0,0,.73-1.3,6.5,6.5,0,0,1-.01-1.912,1.215,1.215,0,0,0-.743-1.3l-.992-.405.512-1.254.992.405a1.215,1.215,0,0,0,1.439-.406,6.511,6.511,0,0,1,1.346-1.358,1.215,1.215,0,0,0,.392-1.443l-.415-.988,1.248-.524.415.988a1.215,1.215,0,0,0,1.3.73,6.5,6.5,0,0,1,1.912-.01,1.215,1.215,0,0,0,1.3-.743l.405-.992,1.253.512-.405.992a1.215,1.215,0,0,0,.406,1.439A6.5,6.5,0,0,1,77.139,43.6a1.214,1.214,0,0,0,1.443.392l.988-.415.524,1.248-.988.415a1.215,1.215,0,0,0-.73,1.3,6.511,6.511,0,0,1,.01,1.912,1.215,1.215,0,0,0,.743,1.3l.992.405Z" transform="translate(3.343 -22.229)" fill="#0084cd"/>
    </g>
  </g>
</svg>
