<svg xmlns="http://www.w3.org/2000/svg" xmlns:xlink="http://www.w3.org/1999/xlink" width="281" height="281" viewBox="0 0 281 281">
  <defs>
    <linearGradient id="linear-gradient" x1="0.5" y1="-0.61" x2="0.5" y2="1" gradientUnits="objectBoundingBox">
      <stop offset="0" stop-color="#0084cd" stop-opacity="0"/>
      <stop offset="1" stop-color="#0084cd"/>
    </linearGradient>
  </defs>
  <g id="Teamwork" transform="translate(338 100.03)">
    <g id="Ellipse" transform="translate(-336 -98.03)" fill="#fff" stroke="#fff" stroke-width="2">
      <circle cx="138.5" cy="138.5" r="138.5" stroke="none"/>
      <circle cx="138.5" cy="138.5" r="139.5" fill="none"/>
    </g>
    <path id="Intersection_2" data-name="Intersection 2" d="M-662.168-2689.041c16.794,4.037,35.885,7.2,54.025,6.994,47.637,0,106.626-25.032,160.875-31.067,19.878-2.211,40.41-1.432,58,.326A138.509,138.509,0,0,1-527.5-2583.031,138.561,138.561,0,0,1-662.168-2689.041Z" transform="translate(330 2762)" fill="url(#linear-gradient)"/>
    <text id="Teamwork-2" data-name="Teamwork" transform="translate(-245 98.97)" fill="#fff" font-size="20" font-family="HindMadurai-Bold, Hind Madurai" font-weight="700"><tspan x="0" y="20">Teamwork</tspan></text>
    <g id="Icon_Teamwork" data-name="Icon Teamwork" transform="translate(-241.981 -18.03)">
      <rect id="Rectangle_249" data-name="Rectangle 249" width="100" height="100" transform="translate(-5.019 -15)" fill="none"/>
      <path id="Path_931" data-name="Path 931" d="M88.1,100.676a1.278,1.278,0,0,0,1.31-1.243v-2.75a9.316,9.316,0,0,0-7.19-8.9l-9.091-2.314v-3.28A10.4,10.4,0,0,0,78.5,73.2v-11a6.106,6.106,0,0,0-6.251-5.934h-.331a4.32,4.32,0,0,0-4.128-2.869H65.32a9.093,9.093,0,0,0-6.762,2.96,8.31,8.31,0,0,0-8.146-6.11H49.407a4.474,4.474,0,0,0-4.294-3.018H42.287A11.707,11.707,0,0,0,30.439,57.408a6.44,6.44,0,0,0-3.688-1.147H26.42a4.32,4.32,0,0,0-4.128-2.869h-2.47a8.7,8.7,0,0,0-8.911,8.46V73.2a10.4,10.4,0,0,0,5.371,8.993v3.28L7.191,87.785A9.316,9.316,0,0,0,0,96.682v3.282a1.278,1.278,0,0,0,1.31,1.243,1.278,1.278,0,0,0,1.31-1.243V96.682a6.8,6.8,0,0,1,5.249-6.495l8.657-2.2a5.654,5.654,0,0,0,5.431,3.828,5.98,5.98,0,0,0,1-.086,9.215,9.215,0,0,0-1.232,4.593v4.335a1.311,1.311,0,0,0,2.619,0V96.319a7.224,7.224,0,0,1,5.574-6.9l3.925-1s.871,2.945.9,3.021c.57,1.559,3.214,7.909,8.706,8.8v13.717H33.706v-8.818a1.311,1.311,0,0,0-2.619,0v8.818H24.345v-7.516a1.311,1.311,0,0,0-2.619,0v2.486H11.516v-1.944a1.311,1.311,0,0,0-2.619,0v1.944H2.619v-3.154a1.278,1.278,0,0,0-1.31-1.243A1.278,1.278,0,0,0,0,105.779v4.4a1.278,1.278,0,0,0,1.31,1.243H21.725v3.787a1.278,1.278,0,0,0,1.31,1.243h43.45a1.278,1.278,0,0,0,1.31-1.243V111.42H88.1a1.278,1.278,0,0,0,1.31-1.243V105.23a1.311,1.311,0,0,0-2.619,0v3.7H80.514v-1.944a1.311,1.311,0,0,0-2.619,0v1.944h-10.1V96.319a9.214,9.214,0,0,0-1.22-4.572,5.983,5.983,0,0,0,.88.065,5.654,5.654,0,0,0,5.431-3.828l8.657,2.2a6.8,6.8,0,0,1,5.249,6.495v2.75A1.278,1.278,0,0,0,88.1,100.676ZM67.455,81.2a8.32,8.32,0,0,1-8.314-6.706V71.642a3.99,3.99,0,0,0,2.8-3.257h5.519a4.774,4.774,0,0,0,3.357-1.358,4.775,4.775,0,0,0,3.357,1.358H75.88V73.2A8.23,8.23,0,0,1,67.455,81.2Zm-15.072,9.2c-.012.034-.046.133-.1.284A2.143,2.143,0,0,1,50.9,91.866a2.276,2.276,0,0,1-2.086-.393L47.54,90.467a5.7,5.7,0,0,0,2.887-3.38l2.719.692ZM38.858,84.572,33,86.063l0-14.218h.211a10.891,10.891,0,0,0,5.646,9.188Zm-8.478-4.6v6.2l-2.75-.7v-3.28A11,11,0,0,0,30.38,79.97Zm1.31-13.491h1.516v2.879H31.69a1.442,1.442,0,1,1,0-2.879Zm16.6-1.457a4.942,4.942,0,0,0,3.324,1.453l2.073,5.34a8.96,8.96,0,0,1-17.854.163l1.513-2.1a8.355,8.355,0,0,1,6.791-3.4h.621a4.951,4.951,0,0,0,3.532-1.458Zm9.538,1.457a1.442,1.442,0,1,1,0,2.879H56.314V66.479H57.83ZM41.477,82.124a12.1,12.1,0,0,0,6.565,0v3.4a3.287,3.287,0,0,1-6.565,0Zm9.184,2.448V81.033a10.891,10.891,0,0,0,5.646-9.188h.213V86.063Zm11.119.9-2.64.672V80.09a11.009,11.009,0,0,0,2.64,2.1ZM75.88,62.2v3.7H74.169a2,2,0,0,1-2.048-1.944V58.748h.128A3.547,3.547,0,0,1,75.88,62.2ZM65.32,55.879h2.47A1.672,1.672,0,0,1,69.5,57.5v6.451A2,2,0,0,1,67.455,65.9H61.375a4.129,4.129,0,0,0-2.347-1.738V61.852A6.146,6.146,0,0,1,65.32,55.879Zm-9.152,2.313v5.8H55a1.3,1.3,0,0,0-1.272.95,2.37,2.37,0,0,0-1.908-.95,2.171,2.171,0,0,1-2.223-2.11V52.728h.81a5.622,5.622,0,0,1,5.755,5.464ZM42.287,49.71h2.826a1.826,1.826,0,0,1,1.87,1.775v10.4a2.171,2.171,0,0,1-2.223,2.11h-.621a11.082,11.082,0,0,0-8.313,3.684v-2.44a1.278,1.278,0,0,0-1.31-1.243H33V58.528a9.072,9.072,0,0,1,9.288-8.818ZM30.38,62.152V64.2a4.126,4.126,0,0,0-2.2,1.646,1.969,1.969,0,0,1-1.56-1.886V58.748h.128A3.548,3.548,0,0,1,30.38,62.152Zm-16.85-.3a6.146,6.146,0,0,1,6.292-5.973h2.47A1.672,1.672,0,0,1,24,57.5v6.451A2,2,0,0,1,21.956,65.9H13.53Zm0,11.346V68.385h8.426a4.774,4.774,0,0,0,3.357-1.358A4.73,4.73,0,0,0,27.57,68.26a3.98,3.98,0,0,0,2.812,3.383v1.512c0,.014,0,.129,0,.129A8.235,8.235,0,0,1,21.956,81.2a8.231,8.231,0,0,1-8.426-8ZM18.9,86.425V83.273a11.557,11.557,0,0,0,6.109,0v3.152a3.059,3.059,0,0,1-6.109,0Zm20.191.662a5.7,5.7,0,0,0,2.887,3.38l-1.271,1.006a2.275,2.275,0,0,1-2.086.393,2.142,2.142,0,0,1-1.383-1.187c-.057-.153-.092-.252-.1-.284l-.763-2.616Zm.146,7.362.053,0a4.982,4.982,0,0,0,3.093-1.067L44.76,91.5l2.375,1.879a4.981,4.981,0,0,0,3.093,1.067l.053,0c-1.259,1.756-3.092,3.417-5.521,3.417S40.5,96.205,39.239,94.449Zm25.937,19.515H58.434v-8.818a1.311,1.311,0,0,0-2.619,0v8.818H46.07V100.247c5.492-.894,8.135-7.244,8.706-8.8.03-.076.9-3.021.9-3.021l3.925,1a7.224,7.224,0,0,1,5.574,6.9v17.645Zm2.279-24.638a2.984,2.984,0,0,1-3.055-2.9V83.273a11.557,11.557,0,0,0,6.109,0v3.152A2.984,2.984,0,0,1,67.454,89.325Z" transform="translate(0 -47.223)" fill="#0084cd"/>
    </g>
  </g>
</svg>
