<svg id="Facebook" xmlns="http://www.w3.org/2000/svg" width="35" height="35" viewBox="0 0 35 35">
  <rect id="Rectangle_248" data-name="Rectangle 248" width="35" height="35" fill="none"/>
  <path id="Icon_ionic-logo-facebook" data-name="Icon ionic-logo-facebook" d="M20.1,4.5H5.412a.912.912,0,0,0-.912.912V20.1a.912.912,0,0,0,.912.912h7.345V14.477H10.783V12.069h1.974v-1.78a3.137,3.137,0,0,1,3.385-3.294c.912,0,1.892.069,2.12.1V9.321H16.744c-1.036,0-1.234.49-1.234,1.213v1.535h2.469l-.323,2.408H15.51v6.537H20.1a.912.912,0,0,0,.912-.912V5.412A.912.912,0,0,0,20.1,4.5Z" transform="translate(4.5 4.5)" fill="#fff"/>
</svg>
