<svg id="Icon_Call" data-name="Icon Call" xmlns="http://www.w3.org/2000/svg" width="35" height="35" viewBox="0 0 35 35">
  <rect id="Rectangle_247" data-name="Rectangle 247" width="35" height="35" fill="none"/>
  <path id="Icon_feather-phone-call" data-name="Icon feather-phone-call" d="M14.4,4.972A4.34,4.34,0,0,1,17.828,8.4M14.4,1.5a7.813,7.813,0,0,1,6.9,6.893m-.868,6.927v2.6A1.736,1.736,0,0,1,18.54,19.66,17.179,17.179,0,0,1,11.048,17,16.928,16.928,0,0,1,5.84,11.787,17.179,17.179,0,0,1,3.175,4.26,1.736,1.736,0,0,1,4.9,2.368h2.6A1.736,1.736,0,0,1,9.243,3.861,11.146,11.146,0,0,0,9.85,6.3,1.736,1.736,0,0,1,9.46,8.132l-1.1,1.1a13.889,13.889,0,0,0,5.208,5.208l1.1-1.1A1.736,1.736,0,0,1,16.5,12.95a11.146,11.146,0,0,0,2.439.608A1.736,1.736,0,0,1,20.432,15.32Z" transform="translate(4.832 6.5)" fill="#fff"/>
</svg>
