<svg id="Instagram" xmlns="http://www.w3.org/2000/svg" width="35" height="35" viewBox="0 0 35 35">
  <rect id="Rectangle_248" data-name="Rectangle 248" width="35" height="35" fill="none"/>
  <path id="Icon_awesome-instagram" data-name="Icon awesome-instagram" d="M8.6,6.429a4.411,4.411,0,1,0,4.411,4.411A4.4,4.4,0,0,0,8.6,6.429Zm0,7.279a2.868,2.868,0,1,1,2.868-2.868A2.873,2.873,0,0,1,8.6,13.709Zm5.621-7.46A1.029,1.029,0,1,1,13.193,5.22,1.027,1.027,0,0,1,14.222,6.249Zm2.922,1.044a5.092,5.092,0,0,0-1.39-3.605A5.125,5.125,0,0,0,12.149,2.3c-1.421-.081-5.678-.081-7.1,0A5.118,5.118,0,0,0,1.445,3.684,5.109,5.109,0,0,0,.055,7.289c-.081,1.421-.081,5.678,0,7.1a5.092,5.092,0,0,0,1.39,3.605,5.132,5.132,0,0,0,3.605,1.39c1.421.081,5.678.081,7.1,0a5.092,5.092,0,0,0,3.605-1.39,5.125,5.125,0,0,0,1.39-3.605c.081-1.421.081-5.674,0-7.1Zm-1.835,8.619a2.9,2.9,0,0,1-1.636,1.636c-1.133.449-3.82.346-5.072.346s-3.943.1-5.072-.346a2.9,2.9,0,0,1-1.636-1.636c-.449-1.133-.346-3.82-.346-5.072s-.1-3.943.346-5.072A2.9,2.9,0,0,1,3.53,4.133c1.133-.449,3.82-.346,5.072-.346s3.943-.1,5.072.346a2.9,2.9,0,0,1,1.636,1.636c.449,1.133.346,3.82.346,5.072S15.758,14.784,15.309,15.912Z" transform="translate(9.005 6.762)" fill="#fff"/>
</svg>
