<svg id="LinkedIn" xmlns="http://www.w3.org/2000/svg" width="35" height="35" viewBox="0 0 35 35">
  <rect id="Rectangle_248" data-name="Rectangle 248" width="35" height="35" fill="none"/>
  <path id="Icon_awesome-linkedin" data-name="Icon awesome-linkedin" d="M15.513,2.25H1.19A1.2,1.2,0,0,0,0,3.454v14.3a1.2,1.2,0,0,0,1.19,1.2H15.513a1.2,1.2,0,0,0,1.193-1.2V3.454A1.2,1.2,0,0,0,15.513,2.25ZM5.049,16.569H2.573V8.6h2.48v7.973ZM3.811,7.508A1.436,1.436,0,1,1,5.247,6.072,1.436,1.436,0,0,1,3.811,7.508ZM14.33,16.569H11.854V12.691c0-.925-.019-2.114-1.286-2.114-1.29,0-1.488,1.007-1.488,2.047v3.945H6.6V8.6H8.979V9.686h.034A2.608,2.608,0,0,1,11.358,8.4c2.506,0,2.972,1.652,2.972,3.8Z" transform="translate(9 6.75)" fill="#fff"/>
</svg>
