<svg id="Twitter" xmlns="http://www.w3.org/2000/svg" width="35" height="35" viewBox="0 0 35 35">
  <rect id="Rectangle_248" data-name="Rectangle 248" width="35" height="35" fill="none"/>
  <path id="Icon_awesome-twitter-square" data-name="Icon awesome-twitter-square" d="M14.916,2.25H1.79A1.79,1.79,0,0,0,0,4.04V17.166a1.79,1.79,0,0,0,1.79,1.79H14.916a1.79,1.79,0,0,0,1.79-1.79V4.04A1.79,1.79,0,0,0,14.916,2.25ZM13.092,8.172c.007.1.007.213.007.317a6.911,6.911,0,0,1-6.958,6.958,6.926,6.926,0,0,1-3.755-1.1,5.152,5.152,0,0,0,.589.03,4.9,4.9,0,0,0,3.035-1.044,2.449,2.449,0,0,1-2.286-1.7,2.636,2.636,0,0,0,1.1-.045,2.446,2.446,0,0,1-1.958-2.4v-.03a2.444,2.444,0,0,0,1.1.31A2.441,2.441,0,0,1,2.886,7.437,2.415,2.415,0,0,1,3.218,6.2,6.944,6.944,0,0,0,8.26,8.761a2.451,2.451,0,0,1,4.173-2.234,4.792,4.792,0,0,0,1.551-.589A2.439,2.439,0,0,1,12.91,7.284a4.867,4.867,0,0,0,1.41-.38A5.148,5.148,0,0,1,13.092,8.172Z" transform="translate(9 6.75)" fill="#fff"/>
</svg>
