<svg xmlns="http://www.w3.org/2000/svg" width="100" height="100" viewBox="0 0 100 100">
  <g id="Crowd_Funding" data-name="Crowd Funding" transform="translate(5.257 15)">
    <rect id="Rectangle_250" data-name="Rectangle 250" width="100" height="100" transform="translate(-5.257 -15)" fill="none"/>
    <path id="Path_932" data-name="Path 932" d="M79.289,32.852A1.541,1.541,0,0,0,77.911,32H13.239a1.541,1.541,0,0,0-1.378.852l-7.7,15.4A1.54,1.54,0,0,0,5.54,50.478H11.7v23.1a7.708,7.708,0,0,0,7.7,7.7H71.752a7.708,7.708,0,0,0,7.7-7.7v-23.1H85.61a1.54,1.54,0,0,0,1.378-2.228Zm-65.1,2.228H60.022L53.862,47.4H8.031Zm.588,38.5v-23.1H54.814a1.541,1.541,0,0,0,1.378-.852l4.781-9.564V78.194H19.4A4.625,4.625,0,0,1,14.779,73.575Zm61.592,0a4.625,4.625,0,0,1-4.619,4.619h-7.7V40.062l4.781,9.564a1.541,1.541,0,0,0,1.378.852h6.159ZM71.164,47.4,65,35.08H76.96L83.119,47.4Z" transform="translate(-0.812 3.726)" fill="#0084cd"/>
    <path id="Path_933" data-name="Path 933" d="M29.239,46a9.234,9.234,0,0,0-4.587,17.251,1.54,1.54,0,0,0,1.507,1.227h6.159a1.54,1.54,0,0,0,1.507-1.227A9.234,9.234,0,0,0,29.239,46ZM31.7,60.878a1.527,1.527,0,0,0-.639.52h-.283V56.779h1.54V53.7H26.159v3.08H27.7V61.4h-.283a1.527,1.527,0,0,0-.639-.52,6.159,6.159,0,1,1,4.924,0Z" transform="translate(7.825 11.283)" fill="#0084cd"/>
    <rect id="Rectangle_253" data-name="Rectangle 253" width="6" height="3" transform="translate(34.743 77)" fill="#0084cd"/>
    <rect id="Rectangle_254" data-name="Rectangle 254" width="4" height="4" transform="translate(21.743 64)" fill="#0084cd"/>
    <rect id="Rectangle_255" data-name="Rectangle 255" width="3" height="4" transform="translate(49.743 64)" fill="#0084cd"/>
    <rect id="Rectangle_256" data-name="Rectangle 256" width="3.08" height="3.08" transform="translate(25.086 56.722) rotate(-45)" fill="#0084cd"/>
    <rect id="Rectangle_257" data-name="Rectangle 257" width="3.08" height="3.08" transform="translate(44.684 76.321) rotate(-45)" fill="#0084cd"/>
    <rect id="Rectangle_258" data-name="Rectangle 258" width="3.08" height="3.08" transform="translate(25.086 76.321) rotate(-45)" fill="#0084cd"/>
    <rect id="Rectangle_259" data-name="Rectangle 259" width="3.08" height="3.08" transform="translate(44.685 56.723) rotate(-45)" fill="#0084cd"/>
    <path id="Path_934" data-name="Path 934" d="M18.7,35.4A7.7,7.7,0,1,0,11,27.7,7.708,7.708,0,0,0,18.7,35.4Zm0-12.318A4.619,4.619,0,1,1,14.08,27.7,4.625,4.625,0,0,1,18.7,23.08Z" transform="translate(2.967 -2.752)" fill="#0084cd"/>
    <path id="Path_935" data-name="Path 935" d="M47.7,35.4A7.7,7.7,0,1,0,40,27.7,7.708,7.708,0,0,0,47.7,35.4Zm0-12.318A4.619,4.619,0,1,1,43.08,27.7,4.625,4.625,0,0,1,47.7,23.08Z" transform="translate(18.621 -2.752)" fill="#0084cd"/>
    <path id="Path_936" data-name="Path 936" d="M20.4,24.478h3.08A18.5,18.5,0,0,0,5,6V9.08A15.416,15.416,0,0,1,20.4,24.478Z" transform="translate(-0.272 -10.309)" fill="#0084cd"/>
    <path id="Path_937" data-name="Path 937" d="M44,26.1h3.08A20.041,20.041,0,0,1,67.1,6.08V3A23.123,23.123,0,0,0,44,26.1Z" transform="translate(20.78 -11.929)" fill="#0084cd"/>
    <path id="Path_938" data-name="Path 938" d="M35.938,20.018h3.08A20.041,20.041,0,0,0,19,0V3.08A16.958,16.958,0,0,1,35.938,20.018Z" transform="translate(7.285 -13.548)" fill="#0084cd"/>
    <path id="Path_939" data-name="Path 939" d="M40.08,17.4A12.333,12.333,0,0,1,52.4,5.08V2A15.416,15.416,0,0,0,37,17.4Z" transform="translate(17.002 -12.469)" fill="#0084cd"/>
    <path id="Path_940" data-name="Path 940" d="M5,16.08a7.708,7.708,0,0,1,7.7,7.7h3.08A10.791,10.791,0,0,0,5,13Z" transform="translate(-0.272 -6.531)" fill="#0084cd"/>
    <path id="Path_941" data-name="Path 941" d="M29.557,24.637h3.08A24.666,24.666,0,0,0,8,0V3.08A21.581,21.581,0,0,1,29.557,24.637Z" transform="translate(1.347 -13.548)" fill="#0084cd"/>
    <rect id="Rectangle_260" data-name="Rectangle 260" width="3" height="3" transform="translate(-1.257 -4)" fill="#0084cd"/>
    <rect id="Rectangle_261" data-name="Rectangle 261" width="3" height="2" transform="translate(-1.257 7)" fill="#0084cd"/>
    <rect id="Rectangle_262" data-name="Rectangle 262" width="2" height="4" transform="translate(3.743 -14)" fill="#0084cd"/>
    <rect id="Rectangle_263" data-name="Rectangle 263" width="3" height="4" transform="translate(-3.257 -14)" fill="#0084cd"/>
    <rect id="Rectangle_264" data-name="Rectangle 264" width="4" height="3" transform="translate(30.743 14)" fill="#0084cd"/>
    <rect id="Rectangle_265" data-name="Rectangle 265" width="4" height="4" transform="translate(53.743 8)" fill="#0084cd"/>
    <rect id="Rectangle_266" data-name="Rectangle 266" width="3" height="3" transform="translate(90.743 -9)" fill="#0084cd"/>
    <path id="Path_942" data-name="Path 942" d="M41.239,3.08V0A9.248,9.248,0,0,0,32,9.239h3.08A6.165,6.165,0,0,1,41.239,3.08Z" transform="translate(14.303 -13.548)" fill="#0084cd"/>
    <rect id="Rectangle_267" data-name="Rectangle 267" width="2" height="3" transform="translate(57.743 14)" fill="#0084cd"/>
    <rect id="Rectangle_268" data-name="Rectangle 268" width="2" height="4" transform="translate(43.743 9)" fill="#0084cd"/>
    <path id="Path_943" data-name="Path 943" d="M32.159,20.7a7.7,7.7,0,1,0,3.08,0V19h-3.08Zm6.159,7.544A4.619,4.619,0,1,1,33.7,23.619,4.625,4.625,0,0,1,38.319,28.239Z" transform="translate(11.064 -3.292)" fill="#0084cd"/>
  </g>
</svg>
