<svg xmlns="http://www.w3.org/2000/svg" width="100" height="100" viewBox="0 0 100 100">
  <g id="Project_Financing" data-name="Project Financing" transform="translate(9 10)">
    <rect id="Rectangle_252" data-name="Rectangle 252" width="100" height="100" transform="translate(-9 -10)" fill="none"/>
    <path id="Path_944" data-name="Path 944" d="M110.435,122.291V60.97a4.976,4.976,0,0,0-4.97-4.97H45.822a4.976,4.976,0,0,0-4.97,4.97v43.076H17.657A1.657,1.657,0,0,0,16,105.7v31.478a1.657,1.657,0,0,0,1.657,1.657h72.9a1.658,1.658,0,0,0,.455-.064l20.455-5.844a5.434,5.434,0,0,0-1.029-10.638ZM44.165,92.164a4.947,4.947,0,0,0,1.657.285H62.389v3.313H44.165Zm3.314-12.969H44.165V69.254h3.314a6.634,6.634,0,0,0,6.627-6.627V59.313h8.284V72.568H54.105v3.313h8.284V89.135H54.105V85.822A6.634,6.634,0,0,0,47.478,79.195Zm56.33-9.941h3.313v9.941h-3.313a6.634,6.634,0,0,0-6.627,6.627v3.313H88.9V75.881h8.284V72.568H88.9V59.313h8.284v3.313A6.634,6.634,0,0,0,103.808,69.254ZM88.9,112.33h18.224v3.313H88.9Zm18.224-16.568H88.9V92.449h16.568a4.947,4.947,0,0,0,1.657-.285ZM85.584,89.135H65.7V59.313H85.584ZM65.7,92.449H85.584v6.627H67.359a1.657,1.657,0,0,0-.653.134l-1,.43ZM88.9,99.076h18.224v3.313H93.394a5.566,5.566,0,0,0-4.5-3.283Zm4.861,6.627h13.364v3.314H91.716a5.585,5.585,0,0,0,2.042-3.314Zm-8.174,13.31-7.763-4.658,7.763-2.823Zm3.314-.056h18.224v3.313H91.013L88.9,121Zm18.224-31.478a1.659,1.659,0,0,1-1.657,1.657h-4.97V85.822a3.317,3.317,0,0,1,3.314-3.313h3.313Zm0-26.508v4.97h-3.313a3.317,3.317,0,0,1-3.314-3.314V59.313h4.97A1.659,1.659,0,0,1,107.121,60.97Zm-61.3-1.657h4.97v3.313a3.317,3.317,0,0,1-3.314,3.314H44.165V60.97A1.659,1.659,0,0,1,45.822,59.313ZM44.165,82.508h3.314a3.317,3.317,0,0,1,3.314,3.313v3.313h-4.97a1.659,1.659,0,0,1-1.657-1.657Zm4.97,53.016H19.314V107.359H49.135Zm-4.97-31.478v-4.97H62.389v1.984l-6.967,2.986Zm66.389,25.7-20.232,5.781H52.449V107.359h3.314a1.657,1.657,0,0,0,.653-.134L67.7,102.389H88.313a2.24,2.24,0,0,1,.766,4.346L73.42,112.429a1.657,1.657,0,0,0-.286,2.978L89.7,125.347a1.656,1.656,0,0,0,.852.236h19.417a2.121,2.121,0,0,1,.583,4.16Z" transform="translate(-25 -57.5)" fill="#0084cd"/>
    <path id="Path_945" data-name="Path 945" d="M284.969,104.568H280v3.314h3.313v3.314h3.314v-3.6a4.97,4.97,0,0,0-1.657-9.656,1.657,1.657,0,1,1,0-3.314h4.97V91.314h-3.313V88h-3.314v3.6a4.97,4.97,0,0,0,1.657,9.655,1.657,1.657,0,0,1,0,3.314Z" transform="translate(-234.326 -82.873)" fill="#0084cd"/>
  </g>
</svg>
