<svg xmlns="http://www.w3.org/2000/svg" width="100" height="100" viewBox="0 0 100 100">
  <g id="Tradings" transform="translate(5.019 15)">
    <rect id="Rectangle_249" data-name="Rectangle 249" width="100" height="100" transform="translate(-5.019 -15)" fill="none"/>
    <path id="Path_946" data-name="Path 946" d="M35.452,37.581v-3.46a4.586,4.586,0,0,0,.681-8.487l-3.145-1.571a1.379,1.379,0,0,1,.616-2.611h.471a1.379,1.379,0,0,1,1.377,1.377v.235h3.226v-.235a4.6,4.6,0,0,0-3.226-4.369V15H32.226v3.46a4.586,4.586,0,0,0-.681,8.487l3.145,1.571a1.379,1.379,0,0,1-.616,2.611H33.6a1.379,1.379,0,0,1-1.377-1.377V27.9H29v1.848a4.6,4.6,0,0,0,3.226,4.369v3.46Z" transform="translate(11.143 -7.42)" fill="#0084cd"/>
    <path id="Path_947" data-name="Path 947" d="M56.484,28.742A17.742,17.742,0,1,0,38.742,46.484,17.763,17.763,0,0,0,56.484,28.742Zm-32.258,0A14.516,14.516,0,1,1,38.742,43.258,14.534,14.534,0,0,1,24.226,28.742Z" transform="translate(6.24 -9.871)" fill="#0084cd"/>
    <path id="Path_948" data-name="Path 948" d="M70.419,47H47.839A4.845,4.845,0,0,0,43,51.839V67.968a4.845,4.845,0,0,0,4.839,4.839H70.419a4.845,4.845,0,0,0,4.839-4.839V51.839A4.845,4.845,0,0,0,70.419,47ZM55.9,50.226h6.452v6.452H55.9ZM72.032,67.968a1.616,1.616,0,0,1-1.613,1.613H47.839a1.616,1.616,0,0,1-1.613-1.613V51.839a1.616,1.616,0,0,1,1.613-1.613h4.839V59.9h12.9V50.226h4.839a1.616,1.616,0,0,1,1.613,1.613Z" transform="translate(19.723 12.193)" fill="#0084cd"/>
    <path id="Path_949" data-name="Path 949" d="M47.774,55.148A24.48,24.48,0,0,0,51,55.387a24.18,24.18,0,1,0-16.456-6.452H20.355a4.845,4.845,0,0,0-4.839,4.839V69.9a4.784,4.784,0,0,0,.3,1.613H5.839A4.845,4.845,0,0,0,1,76.355V92.484a4.845,4.845,0,0,0,4.839,4.839H28.419a4.808,4.808,0,0,0,3.226-1.258,4.8,4.8,0,0,0,3.226,1.258H57.452a4.845,4.845,0,0,0,4.839-4.839V76.355a4.845,4.845,0,0,0-4.839-4.839H47.477a4.784,4.784,0,0,0,.3-1.613ZM30.032,31.194A21.137,21.137,0,1,1,47.352,51.814a4.842,4.842,0,0,0-4.416-2.879H39.861A20.8,20.8,0,0,1,30.032,31.194ZM28.419,52.161h6.452v6.452H28.419ZM13.9,74.742h6.452v6.452H13.9ZM28.419,94.1H5.839a1.616,1.616,0,0,1-1.613-1.613V76.355a1.616,1.616,0,0,1,1.613-1.613h4.839v9.677h12.9V74.742h4.839a1.616,1.616,0,0,1,1.613,1.613V92.484A1.616,1.616,0,0,1,28.419,94.1ZM59.064,76.355V92.484A1.616,1.616,0,0,1,57.452,94.1H34.871a1.616,1.616,0,0,1-1.613-1.613V76.355a1.616,1.616,0,0,1,1.613-1.613H39.71v9.677h12.9V74.742h4.839A1.616,1.616,0,0,1,59.064,76.355ZM42.935,74.742h6.452v6.452H42.935Zm-8.065-3.226H20.355A1.616,1.616,0,0,1,18.742,69.9V53.774a1.616,1.616,0,0,1,1.613-1.613h4.839v9.677H38.1V52.161h4.839a1.616,1.616,0,0,1,1.613,1.613V69.9a1.616,1.616,0,0,1-1.613,1.613Z" transform="translate(-6.019 -12.323)" fill="#0084cd"/>
    <path id="Path_950" data-name="Path 950" d="M11,29h3.226v3.226H11Z" transform="translate(0.111 1.161)" fill="#0084cd"/>
    <path id="Path_951" data-name="Path 951" d="M14.226,34.871a30.645,30.645,0,0,1,61.29,0V64.287L70.3,58.032,67.826,60.1l9.3,11.165,9.3-11.165-2.477-2.065-5.213,6.255V34.871a33.871,33.871,0,0,0-67.742,0v8.065h3.226Z" transform="translate(0.111 -16)" fill="#0084cd"/>
  </g>
</svg>
